<svg width="111" height="48" viewBox="0 0 111 48" fill="none" xmlns="http://www.w3.org/2000/svg">
<path d="M110.704 6.80346H107.056C106.9 6.80346 106.777 6.92671 106.777 7.08283V15.6693C106.777 17.7646 105.536 18.159 103.991 18.159H101.477C99.9238 18.159 98.6913 18.2001 98.6913 16.3349H98.6831C98.6831 16.1623 98.6913 15.998 98.6913 15.8337V7.08283C98.6913 6.92671 98.5681 6.80346 98.4119 6.80346H94.7637C94.6076 6.80346 94.4843 6.92671 94.4843 7.08283V15.6693C94.4843 17.7646 93.2436 18.159 91.6989 18.159H90.5239C89.1517 18.159 87.9356 18.1015 86.8592 18.0029C88.5108 16.9347 89.5872 15.3324 89.5872 13.1057C89.5872 9.06306 86.3087 5.77637 82.2578 5.77637C78.207 5.77637 74.9285 9.05485 74.9285 13.1057C74.9285 14.8066 75.4215 16.5814 76.9416 18.0768C76.1281 18.1261 75.249 18.159 74.2876 18.159H73.4906C71.5925 18.159 70.3271 17.7646 70.3271 15.6693V7.08283C70.3271 6.92671 70.2039 6.80346 70.0477 6.80346H66.3995C66.2434 6.80346 66.1201 6.92671 66.1201 7.08283V15.6693C66.1201 17.7646 64.8876 18.159 63.3347 18.159H16.6143C15.0613 18.159 13.8288 17.7646 13.8288 15.6693V12.7113C13.8288 9.41638 12.6949 6.90206 8.14279 6.90206H2.0131C1.85698 6.90206 1.73373 7.02531 1.73373 7.18143V10.1148C1.73373 10.2709 1.85698 10.3942 2.0131 10.3942H6.83633C8.3893 10.3942 9.62181 10.7886 9.62181 12.8838V15.6775C9.62181 17.7728 8.3893 18.1672 6.83633 18.1672H0.279369C0.123251 18.1672 0 18.2905 0 18.4466V21.38C0 21.5361 0.123251 21.6593 0.279369 21.6593H8.14279C10.7639 21.6593 12.2512 20.8212 13.04 19.4819C13.9685 21.2321 15.6447 21.6182 17.5921 21.6511H64.6493C67.2705 21.6511 68.7577 20.813 69.5465 19.4737C70.5079 21.2814 72.2663 21.6347 74.2958 21.6511C74.2958 21.6511 74.3451 21.6511 74.3698 21.6511C74.3862 21.6511 74.4026 21.6511 74.4273 21.6511C77.714 21.6429 80.3351 21.3307 82.414 20.813C84.5174 21.3389 87.1797 21.6511 90.5321 21.6511H93.0135C95.5772 21.6511 97.0562 20.8541 97.8614 19.5641C98.8557 21.3471 100.754 21.6511 102.668 21.6511H104.525C109.833 21.6511 111 19.1368 111 15.8419V7.08283C111 6.92671 110.877 6.80346 110.721 6.80346H110.704ZM82.266 9.71219C83.9833 9.71219 85.7335 11.3555 85.7335 13.1797C85.7335 14.7491 84.575 16.4088 82.9563 17.2962C79.2834 16.1952 78.7904 14.2889 78.7904 13.1797C78.7904 11.3555 80.1461 9.71219 82.2578 9.71219H82.266Z" fill="#92D500"/>
<path d="M110.703 0H101.887C101.732 0 101.607 0.125078 101.607 0.279369V3.27026C101.607 3.42456 101.732 3.54963 101.887 3.54963H110.703C110.858 3.54963 110.983 3.42456 110.983 3.27026V0.279369C110.983 0.125078 110.858 0 110.703 0Z" fill="#92D500"/>
<path d="M70.0569 23.8368H61.2403C61.086 23.8368 60.9609 23.9619 60.9609 24.1162V27.1071C60.9609 27.2613 61.086 27.3864 61.2403 27.3864H70.0569C70.2112 27.3864 70.3362 27.2613 70.3362 27.1071V24.1162C70.3362 23.9619 70.2112 23.8368 70.0569 23.8368Z" fill="#92D500"/>
<path d="M98.4198 0H94.7716C94.6173 0 94.4922 0.125078 94.4922 0.279369V3.27026C94.4922 3.42456 94.6173 3.54963 94.7716 3.54963H98.4198C98.5741 3.54963 98.6992 3.42456 98.6992 3.27026V0.279369C98.6992 0.125078 98.5741 0 98.4198 0Z" fill="#92D500"/>
<path d="M83.91 0H80.2618C80.1075 0 79.9824 0.125078 79.9824 0.279369V3.27026C79.9824 3.42456 80.1075 3.54963 80.2618 3.54963H83.91C84.0643 3.54963 84.1894 3.42456 84.1894 3.27026V0.279369C84.1894 0.125078 84.0643 0 83.91 0Z" fill="#92D500"/>
<path d="M9.60534 0H5.9571C5.80281 0 5.67773 0.125078 5.67773 0.279369V3.27026C5.67773 3.42456 5.80281 3.54963 5.9571 3.54963H9.60534C9.75963 3.54963 9.88471 3.42456 9.88471 3.27026V0.279369C9.88471 0.125078 9.75963 0 9.60534 0Z" fill="#92D500"/>
<path d="M53.1621 32.3658C53.1621 32.2097 53.0388 32.0864 52.8827 32.0864H49.6535C49.6535 30.7389 50.1055 29.5967 51.6502 29.5967H53.236C53.3922 29.5967 53.5154 29.4735 53.5154 29.3174L53.5483 26.384C53.5483 26.2279 53.425 26.1046 53.2689 26.1046H51.1325C45.8245 26.1046 45.4466 29.3502 45.4466 31.9139V32.0782H43.795C43.6389 32.0782 43.5156 32.2014 43.5156 32.3576V34.9705C43.5156 35.1266 43.6389 35.2498 43.795 35.2498H45.4466V46.6383C45.4466 46.7944 45.5698 46.9176 45.7259 46.9176H49.3742C49.5303 46.9176 49.6535 46.7944 49.6535 46.6383V35.2498H52.8827C53.0388 35.2498 53.1621 35.1266 53.1621 34.9705V32.3576V32.3658Z" fill="black"/>
<path d="M19.4403 31.051C15.9318 31.051 12.2671 32.9409 12.1028 37.2793C12.1028 37.4354 12.226 37.5751 12.3904 37.5751H16.0961C16.244 37.5751 16.3591 37.4519 16.3673 37.304C16.4905 35.3073 17.9613 34.3459 19.4321 34.387C20.9687 34.4281 22.5134 35.4141 22.5134 37.7395V38.29C14.4528 36.8192 11.3633 40.3606 11.3633 43.5487C11.3633 46.1288 13.6475 48.2076 17.7477 47.6817C19.9662 47.3941 21.7739 46.1534 22.5134 44.0006V46.6464C22.5134 46.8025 22.6367 46.9258 22.7928 46.9258H26.441C26.5971 46.9258 26.7204 46.8025 26.7204 46.6464V37.9777C26.7204 34.6007 24.9456 31.051 19.4321 31.051H19.4403ZM16.1372 42.6038C16.1372 40.9604 17.912 39.58 22.5134 40.7057C21.6671 46.2438 16.1372 45.192 16.1372 42.6038Z" fill="black"/>
<path d="M60.8119 31.051C55.4382 31.051 53.2689 35.5456 53.1703 38.898H53.1621V39.4978C53.1621 43.8198 55.5532 47.7557 61.0666 47.7557C63.6549 47.7557 66.2925 46.5971 67.829 43.6309C67.903 43.483 67.829 43.3022 67.6893 43.2365L64.797 42.0204C64.6656 41.9629 64.5177 42.0204 64.4437 42.1518C63.5974 43.7048 62.4635 44.4197 61.0666 44.4197C59.4068 44.4197 57.821 43.5487 57.4923 40.681H67.8783C68.0344 40.681 68.1577 40.5578 68.1577 40.4017V38.8816C68.1577 33.6639 64.8135 31.051 60.8201 31.051H60.8119ZM60.8119 34.3952C62.8579 34.3952 63.7699 35.9482 63.8521 37.9367H57.4841C57.8374 35.0772 59.4397 34.3952 60.8037 34.3952H60.8119Z" fill="black"/>
<path d="M38.0765 31.0511C35.554 31.0511 33.6724 32.3082 33.015 35.1019L32.4234 32.3C32.3988 32.1685 32.2837 32.0782 32.1523 32.0782H29.4161C29.26 32.0782 29.1367 32.2014 29.1367 32.3575V46.6382C29.1367 46.7943 29.26 46.9176 29.4161 46.9176H33.1218C33.278 46.9176 33.4012 46.7943 33.4012 46.6382V37.5669C33.4012 35.3813 34.9377 34.3378 36.4743 34.3871C38.0108 34.4281 38.89 35.4142 38.89 37.7395V46.6382C38.89 46.7943 39.0132 46.9176 39.1694 46.9176H42.8176C42.9737 46.9176 43.097 46.7943 43.097 46.6382V36.926C43.097 34.1981 42.0945 31.0428 38.093 31.0428L38.0765 31.0511Z" fill="black"/>
<path d="M105.98 31.0511C103.621 31.0511 101.83 32.144 101.058 34.5679V26.3758C101.058 26.2197 100.935 26.0964 100.778 26.0964H97.3028C97.1467 26.0964 97.0234 26.2197 97.0234 26.3758V46.6383C97.0234 46.7944 97.1467 46.9177 97.3028 46.9177H101.009C101.165 46.9177 101.288 46.7944 101.288 46.6383V37.567C101.288 35.3814 102.824 34.3378 104.361 34.3871C105.898 34.4282 106.777 35.4142 106.777 37.7396V46.6383C106.777 46.7944 106.9 46.9177 107.056 46.9177H110.704C110.86 46.9177 110.984 46.7944 110.984 46.6383V36.9261C110.984 34.1981 109.981 31.0429 105.98 31.0429V31.0511Z" fill="black"/>
<path d="M77.4916 31.051C72.1178 31.051 69.9486 35.5456 69.85 38.898H69.8418V39.4978C69.8418 43.8198 72.2329 47.7557 77.7463 47.7557C80.3346 47.7557 82.9722 46.5971 84.5087 43.6309C84.5826 43.483 84.5087 43.3022 84.369 43.2365L81.4767 42.0204C81.3452 41.9629 81.1973 42.0204 81.1234 42.1518C80.2771 43.7048 79.1432 44.4197 77.7463 44.4197C76.0865 44.4197 74.5007 43.5487 74.172 40.681H84.558C84.7141 40.681 84.8374 40.5578 84.8374 40.4017V38.8816C84.8374 33.6639 81.4931 31.051 77.4998 31.051H77.4916ZM77.4916 34.3952C79.5376 34.3952 80.4496 35.9482 80.5318 37.9367H74.1638C74.5171 35.0772 76.1194 34.3952 77.4834 34.3952H77.4916Z" fill="black"/>
<path d="M94.871 32.0864H92.5292C91.8637 32.0864 91.3296 31.5523 91.3296 30.8867V29.4159V28.8161C91.3296 28.66 91.2063 28.5367 91.0502 28.5367H88.0429C87.9032 28.5367 87.7799 28.6436 87.7635 28.7832L87.328 32.0864H85.545C85.3889 32.0864 85.2656 32.2096 85.2656 32.3657V34.9787C85.2656 35.1348 85.3889 35.258 85.545 35.258H87.1226V41.7082H87.1308C87.2048 44.1486 87.9032 46.9258 92.8086 46.9258H94.871C95.0271 46.9258 95.1504 46.8026 95.1504 46.6464V43.7131C95.1504 43.557 95.0271 43.4337 94.871 43.4337H93.3263C91.7733 43.4337 91.3296 42.2916 91.3296 40.944V35.2498H94.871C95.0271 35.2498 95.1504 35.1266 95.1504 34.9705V32.3575C95.1504 32.2014 95.0271 32.0782 94.871 32.0782V32.0864Z" fill="black"/>
<path d="M9.60537 32.0864H7.2636C6.59805 32.0864 6.06396 31.5523 6.06396 30.8867V29.4159V28.8161C6.06396 28.66 5.94071 28.5367 5.78459 28.5367H2.76904C2.62936 28.5367 2.51432 28.6436 2.48967 28.7832L2.05419 32.0864H0.279369C0.123251 32.0864 0 32.2096 0 32.3657V34.9787C0 35.1348 0.123251 35.258 0.279369 35.258H1.85698V41.7082H1.8652C1.93915 44.1486 2.63758 46.9258 7.54297 46.9258H9.60537C9.76149 46.9258 9.88474 46.8026 9.88474 46.6464V43.7131C9.88474 43.557 9.76149 43.4337 9.60537 43.4337H8.06063C6.50766 43.4337 6.06396 42.2916 6.06396 40.944V35.2498H9.60537C9.76149 35.2498 9.88474 35.1266 9.88474 34.9705V32.3575C9.88474 32.2014 9.76149 32.0782 9.60537 32.0782V32.0864Z" fill="black"/>
</svg>
